<svg xmlns="http://www.w3.org/2000/svg" viewBox="0 0 64 64">
  <defs>
    <linearGradient id="bg" x1="10%" x2="90%" y1="8%" y2="92%">
      <stop offset="0%" stop-color="#122233" />
      <stop offset="100%" stop-color="#0b1521" />
    </linearGradient>
    <linearGradient id="wand" x1="20%" x2="80%" y1="0%" y2="100%">
      <stop offset="0%" stop-color="#f8e8b8" />
      <stop offset="100%" stop-color="#d3a861" />
    </linearGradient>
  </defs>

  <rect width="64" height="64" rx="18" fill="url(#bg)" />
  <circle cx="20" cy="17" r="3.2" fill="#8ce7db" />
  <path d="M20 10.8v4.1M20 19.1v4.1M13.8 17h4.1M22.1 17h4.1" stroke="#8ce7db" stroke-linecap="round" stroke-width="2.2" />

  <circle cx="46.5" cy="16.5" r="2.5" fill="#f8e8b8" />
  <path d="M46.5 11.5v2.3M46.5 19.2v2.3M41.5 16.5h2.3M49.2 16.5h2.3" stroke="#f8e8b8" stroke-linecap="round" stroke-width="1.8" />

  <rect x="20.5" y="37.8" width="24" height="5.6" rx="2.8" transform="rotate(-45 32.5 40.6)" fill="url(#wand)" />
  <rect x="17.1" y="41.2" width="30.8" height="2.2" rx="1.1" transform="rotate(-45 32.5 42.3)" fill="#f9f4e8" opacity="0.66" />
  <circle cx="22.5" cy="41.5" r="4.1" fill="#8ce7db" />
  <circle cx="22.5" cy="41.5" r="2.2" fill="#dffff7" />
</svg>
